<svg width="1151" height="867" viewBox="0 0 1151 867" fill="none" xmlns="http://www.w3.org/2000/svg">
    <g clip-path="url(#clip0)">
        <path opacity="0.1"
            d="M1119.63 593.56C1118.55 594.293 1117.45 595.003 1116.33 595.69C1112.18 598.263 1107.86 600.571 1103.42 602.6C1079.95 613.45 1051.05 618.75 1022.9 622.35C959.74 630.43 895.26 632 831.06 633.54C657.58 637.71 483.65 641.89 310.63 632.26C242.27 628.46 172.38 622.1 110.42 602.6C101.54 599.807 92.8333 596.733 84.3 593.38C67.04 586.57 50.45 578.27 36.67 568.38C23.67 559.1 13.2 548.44 6.92 536.32C-6.17 511.08 0.759996 482.73 15.71 457.98C21.9937 447.89 29.0127 438.278 36.71 429.22C48.21 415.33 60.94 401.76 72.55 387.88C113.87 338.33 140.83 275.76 102.69 225.01C91.69 210.43 75.89 197.63 66.96 182.4C55.55 162.94 56.44 141.32 60.06 120.32C60.53 117.67 61.06 115.02 61.55 112.4C67.79 81.26 79.44 47.76 115.3 28.27C152.59 8.07001 205.55 9.09001 251.85 16.27C323.85 27.51 390.27 50.98 457.35 72.19C524.43 93.4 594.67 112.76 668.44 114.88C733.57 116.71 809.53 102.95 852.75 67.15C894.75 32.4 973.65 29.75 1030.55 50.75C1069.55 65.15 1098.71 91.12 1110.99 120.32C1113.47 126.133 1115.27 132.214 1116.35 138.44C1117.35 144.075 1117.68 149.807 1117.35 155.52C1117.17 158.35 1116.84 161.14 1116.35 163.9C1106.84 221.52 1038.44 266.96 996.85 318.44C976.53 343.58 962.19 373.77 976.16 400.89C997.47 442.2 1071.57 456.89 1116.35 487.63C1124.95 493.52 1132.47 500.02 1138.35 507.43C1159.97 534.76 1151.96 571.76 1119.63 593.56Z"
            fill="#6C63FF" />
        <path
            d="M676.98 826.81V834.63H445.72V828.28C459.823 823.055 472.059 813.763 480.878 801.581C489.697 789.398 494.704 774.873 495.264 759.844C495.824 744.814 491.912 729.957 484.024 717.152C476.135 704.347 464.625 694.17 450.95 687.91H675.44C665.124 692.645 655.998 699.627 648.731 708.346C641.464 717.066 636.239 727.3 633.44 738.3C629.679 753.109 630.469 768.707 635.706 783.06C640.944 797.413 650.386 809.854 662.8 818.76C667.225 821.944 671.979 824.642 676.98 826.81V826.81Z"
            fill="#C8CAD7" />
        <path opacity="0.1"
            d="M675.44 687.91C665.124 692.645 655.998 699.627 648.731 708.346C641.464 717.066 636.239 727.3 633.44 738.3H492.97C490.171 727.3 484.946 717.066 477.679 708.346C470.412 699.627 461.286 692.645 450.97 687.91H675.44Z"
            fill="black" />
        <path
            d="M180.92 648.07V691.97C180.92 716.21 198.66 735.86 220.55 735.86H900.93C922.82 735.86 940.56 716.21 940.56 691.97V648.07H180.92Z"
            fill="#C8CAD7" />
        <path opacity="0.1"
            d="M676.98 826.81V834.63H445.72V828.28C452.063 825.921 458.062 822.726 463.56 818.78H662.8C667.225 821.957 671.979 824.649 676.98 826.81V826.81Z"
            fill="black" />
        <path
            d="M743.89 821.22H378.8C373.553 821.22 369.3 825.473 369.3 830.72V834.89C369.3 840.137 373.553 844.39 378.8 844.39H743.89C749.137 844.39 753.39 840.137 753.39 834.89V830.72C753.39 825.473 749.137 821.22 743.89 821.22Z"
            fill="#C8CAD7" />
        <path
            d="M940.56 167.04C940.56 156.529 936.385 146.449 928.953 139.017C921.521 131.585 911.441 127.41 900.93 127.41H220.55C210.039 127.41 199.959 131.585 192.527 139.017C185.095 146.449 180.92 156.529 180.92 167.04V656.61H940.56V167.04Z"
            fill="#474157" />
        <path
            d="M919.83 184.76V605.39C919.831 607.952 919.328 610.49 918.348 612.858C917.368 615.225 915.931 617.377 914.119 619.189C912.307 621.001 910.155 622.438 907.788 623.418C905.42 624.398 902.882 624.901 900.32 624.9H221.15C218.588 624.901 216.05 624.398 213.682 623.418C211.315 622.438 209.163 621.001 207.351 619.189C205.539 617.377 204.102 615.225 203.122 612.858C202.142 610.49 201.639 607.952 201.64 605.39V184.76C201.64 179.586 203.696 174.623 207.354 170.964C211.013 167.306 215.976 165.25 221.15 165.25H900.32C905.494 165.25 910.457 167.306 914.116 170.964C917.774 174.623 919.83 179.586 919.83 184.76V184.76Z"
            fill="#F4F4F7" />
        <path
            d="M560.74 155.47C565.793 155.47 569.89 151.373 569.89 146.32C569.89 141.267 565.793 137.17 560.74 137.17C555.687 137.17 551.59 141.267 551.59 146.32C551.59 151.373 555.687 155.47 560.74 155.47Z"
            fill="white" />
        <path
            d="M560.74 716.36C573.2 716.36 583.3 706.26 583.3 693.8C583.3 681.34 573.2 671.24 560.74 671.24C548.28 671.24 538.18 681.34 538.18 693.8C538.18 706.26 548.28 716.36 560.74 716.36Z"
            fill="white" />
        <path
            d="M919.83 184.76H201.65C201.649 182.198 202.152 179.662 203.131 177.295C204.111 174.928 205.547 172.777 207.358 170.965C209.169 169.153 211.319 167.716 213.685 166.735C216.052 165.755 218.588 165.25 221.15 165.25H900.32C902.882 165.249 905.42 165.752 907.788 166.732C910.155 167.712 912.307 169.149 914.119 170.961C915.931 172.773 917.368 174.925 918.348 177.292C919.328 179.66 919.831 182.198 919.83 184.76V184.76Z"
            fill="white" />
        <path
            d="M221.15 179.85C223.845 179.85 226.03 177.665 226.03 174.97C226.03 172.275 223.845 170.09 221.15 170.09C218.455 170.09 216.27 172.275 216.27 174.97C216.27 177.665 218.455 179.85 221.15 179.85Z"
            fill="#EDEDF4" />
        <path
            d="M235.78 179.85C238.475 179.85 240.66 177.665 240.66 174.97C240.66 172.275 238.475 170.09 235.78 170.09C233.085 170.09 230.9 172.275 230.9 174.97C230.9 177.665 233.085 179.85 235.78 179.85Z"
            fill="#EDEDF4" />
        <path
            d="M250.42 179.85C253.115 179.85 255.3 177.665 255.3 174.97C255.3 172.275 253.115 170.09 250.42 170.09C247.725 170.09 245.54 172.275 245.54 174.97C245.54 177.665 247.725 179.85 250.42 179.85Z"
            fill="#EDEDF4" />
        <path d="M848.88 238.76H269.26V577.48H848.88V238.76Z" fill="white" />
        <path
            d="M368.29 524.99H389.66V528.99H368.29V524.99ZM378.98 514.3C379.361 514.298 379.737 514.214 380.082 514.054C380.428 513.895 380.736 513.663 380.985 513.375C381.234 513.087 381.418 512.749 381.525 512.383C381.633 512.018 381.661 511.634 381.607 511.257C381.554 510.88 381.421 510.518 381.217 510.197C381.012 509.876 380.741 509.602 380.422 509.394C380.104 509.186 379.744 509.048 379.367 508.991C378.991 508.933 378.607 508.957 378.24 509.06L372.67 504.99L372.34 505.29L376.42 510.85C376.347 511.104 376.31 511.366 376.31 511.63C376.309 511.981 376.377 512.329 376.511 512.653C376.644 512.978 376.841 513.273 377.089 513.521C377.337 513.769 377.632 513.966 377.957 514.099C378.281 514.233 378.629 514.301 378.98 514.3V514.3Z"
            fill="#65617D" />
        <path
            d="M378.98 494.26C375.726 494.26 372.537 495.175 369.777 496.899C367.017 498.624 364.797 501.089 363.37 504.014C361.943 506.938 361.366 510.205 361.706 513.442C362.045 516.679 363.287 519.755 365.29 522.32H370.2L370.54 521.98L372.38 520.14L370.44 518.23L368.6 520.06C366.942 518.038 365.92 515.572 365.66 512.97H368.26V510.29H365.66C365.92 507.689 366.942 505.222 368.6 503.2L370.44 505.03L372.35 503.12L370.52 501.28C372.542 499.623 375.009 498.6 377.61 498.34V500.94H380.28V498.34C382.884 498.602 385.353 499.625 387.38 501.28L385.54 503.12L387.46 505.03L389.3 503.2C390.953 505.224 391.976 507.69 392.24 510.29H389.63V512.97H392.24C391.976 515.57 390.953 518.036 389.3 520.06L387.46 518.23L385.54 520.14L387.39 521.98L387.72 522.32H392.63C394.632 519.756 395.874 516.68 396.214 513.445C396.554 510.209 395.978 506.943 394.552 504.018C393.127 501.094 390.908 498.628 388.15 496.903C385.391 495.178 382.204 494.262 378.95 494.26H378.98Z"
            fill="#65617D" />
        <path
            d="M378.97 421.42C377.727 421.367 376.508 421.058 375.39 420.51C375.289 420.462 375.176 420.442 375.065 420.452C374.953 420.461 374.846 420.499 374.754 420.563C374.662 420.627 374.588 420.714 374.54 420.815C374.492 420.916 374.471 421.028 374.48 421.14L374.77 425.4C374.776 425.459 374.797 425.515 374.832 425.563C374.866 425.61 374.913 425.648 374.967 425.671C375.021 425.695 375.081 425.703 375.139 425.696C375.198 425.689 375.253 425.666 375.3 425.63L376.51 424.71C376.546 424.684 376.588 424.666 376.631 424.656C376.675 424.646 376.72 424.646 376.764 424.654C376.808 424.663 376.85 424.68 376.887 424.705C376.924 424.73 376.956 424.762 376.98 424.8L378.69 427.48C378.72 427.525 378.761 427.563 378.809 427.588C378.857 427.614 378.911 427.628 378.965 427.628C379.019 427.628 379.073 427.614 379.121 427.588C379.169 427.563 379.21 427.525 379.24 427.48L380.96 424.8C380.988 424.765 381.023 424.735 381.063 424.714C381.103 424.693 381.146 424.68 381.191 424.676C381.236 424.672 381.282 424.678 381.324 424.692C381.367 424.707 381.407 424.73 381.44 424.76L382.65 425.68C382.697 425.716 382.752 425.739 382.811 425.746C382.869 425.753 382.929 425.745 382.983 425.721C383.037 425.698 383.084 425.66 383.118 425.613C383.153 425.565 383.174 425.509 383.18 425.45L383.47 421.19C383.476 421.079 383.453 420.969 383.405 420.869C383.356 420.77 383.282 420.684 383.191 420.621C383.1 420.558 382.994 420.519 382.883 420.508C382.773 420.498 382.662 420.515 382.56 420.56C381.442 421.106 380.223 421.415 378.98 421.47L378.97 421.42Z"
            fill="#65617D" />
        <path
            d="M390.8 410.69L386.8 406.59C386.8 393.4 379.02 387.59 379.02 387.59C379.02 387.59 371.16 393.44 371.16 406.59L367.16 410.69C367.085 410.767 367.029 410.86 366.996 410.963C366.963 411.065 366.954 411.174 366.97 411.28L368.51 420.61C368.522 420.72 368.562 420.826 368.626 420.916C368.691 421.006 368.778 421.078 368.879 421.125C368.98 421.171 369.091 421.19 369.202 421.181C369.312 421.171 369.419 421.133 369.51 421.07L375.12 417.27C376.197 418.264 377.586 418.854 379.05 418.94C380.492 418.865 381.86 418.272 382.9 417.27L388.5 421.07C388.591 421.133 388.698 421.171 388.808 421.181C388.919 421.19 389.03 421.171 389.131 421.125C389.232 421.078 389.319 421.006 389.384 420.916C389.448 420.826 389.488 420.72 389.5 420.61L391.05 411.27C391.054 411.161 391.034 411.052 390.991 410.952C390.948 410.851 390.882 410.762 390.8 410.69V410.69ZM379.01 402.25C378.475 402.274 377.945 402.137 377.489 401.857C377.032 401.577 376.67 401.167 376.449 400.679C376.228 400.191 376.158 399.649 376.248 399.121C376.339 398.593 376.585 398.104 376.956 397.718C377.326 397.331 377.804 397.065 378.328 396.952C378.851 396.84 379.396 396.887 379.893 397.087C380.389 397.288 380.815 397.632 381.114 398.077C381.412 398.521 381.571 399.045 381.57 399.58C381.583 400.273 381.321 400.943 380.842 401.444C380.362 401.944 379.703 402.234 379.01 402.25V402.25Z"
            fill="#65617D" />
        <path
            d="M392.3 319.29H391.88C391.33 319.29 390.88 319.22 390.82 318.67C389.6 307.33 382.45 307.11 382.45 304.44C382.45 301.77 389.61 301.55 390.82 290.21C390.88 289.66 391.33 289.59 391.88 289.59H392.3C392.605 289.593 392.9 289.481 393.125 289.274C393.349 289.068 393.487 288.784 393.51 288.48C393.517 288.322 393.492 288.164 393.436 288.015C393.38 287.867 393.295 287.731 393.186 287.617C393.077 287.502 392.946 287.41 392.8 287.347C392.655 287.284 392.498 287.251 392.34 287.25H365.65C365.347 287.249 365.054 287.363 364.832 287.569C364.609 287.775 364.473 288.058 364.45 288.36C364.442 288.519 364.466 288.677 364.521 288.826C364.576 288.975 364.661 289.111 364.771 289.226C364.88 289.341 365.012 289.433 365.158 289.496C365.304 289.558 365.461 289.59 365.62 289.59H366.08C366.62 289.59 367.08 289.66 367.14 290.21C368.36 301.55 375.51 301.77 375.51 304.44C375.51 307.11 368.35 307.33 367.14 318.67C367.08 319.22 366.62 319.29 366.08 319.29H365.65C365.347 319.289 365.054 319.403 364.832 319.609C364.609 319.815 364.473 320.098 364.45 320.4C364.442 320.559 364.466 320.717 364.521 320.866C364.576 321.015 364.661 321.151 364.771 321.266C364.88 321.381 365.012 321.473 365.158 321.536C365.304 321.598 365.461 321.63 365.62 321.63H392.34C392.499 321.63 392.656 321.598 392.802 321.536C392.948 321.473 393.08 321.381 393.189 321.266C393.299 321.151 393.384 321.015 393.439 320.866C393.494 320.717 393.518 320.559 393.51 320.4C393.485 320.097 393.346 319.814 393.122 319.608C392.898 319.403 392.604 319.289 392.3 319.29V319.29ZM371.24 316.44C373.64 309.77 377.88 310.58 377.88 307.95V303.31C377.88 301.69 374.81 300.56 372.88 297.93C372.818 297.832 372.782 297.72 372.778 297.604C372.774 297.488 372.801 297.373 372.856 297.271C372.911 297.169 372.992 297.084 373.091 297.024C373.191 296.964 373.304 296.931 373.42 296.93H384.52C384.638 296.928 384.754 296.958 384.856 297.016C384.958 297.075 385.042 297.16 385.1 297.262C385.157 297.365 385.186 297.481 385.182 297.599C385.179 297.716 385.143 297.831 385.08 297.93C383.19 300.57 380.08 301.7 380.08 303.32V307.96C380.08 310.57 384.16 309.86 386.74 316.45C386.98 317.04 386.8 317.78 386.17 317.78H371.82C371.17 317.76 371.02 317.04 371.24 316.44V316.44Z"
            fill="#65617D" />
        <path opacity="0.2"
            d="M756.54 304.43C756.545 307.38 755.379 310.212 753.298 312.302C751.216 314.393 748.39 315.572 745.44 315.58H459.69C458.198 315.625 456.713 315.37 455.322 314.83C453.93 314.29 452.662 313.476 451.591 312.436C450.52 311.397 449.668 310.153 449.087 308.779C448.506 307.405 448.206 305.927 448.206 304.435C448.206 302.943 448.506 301.466 449.087 300.091C449.668 298.717 450.52 297.473 451.591 296.434C452.662 295.394 453.93 294.581 455.322 294.041C456.713 293.501 458.198 293.245 459.69 293.29H745.44C748.388 293.301 751.211 294.479 753.291 296.567C755.372 298.655 756.54 301.482 756.54 304.43V304.43Z"
            fill="#5A5773" />
        <path opacity="0.2"
            d="M756.54 407.6C756.544 409.062 756.26 410.51 755.704 411.862C755.149 413.213 754.332 414.443 753.301 415.479C752.271 416.515 751.046 417.338 749.697 417.901C748.348 418.464 746.902 418.756 745.44 418.76H459.69C456.792 418.673 454.042 417.461 452.022 415.38C450.003 413.3 448.874 410.514 448.874 407.615C448.874 404.716 450.003 401.93 452.022 399.85C454.042 397.769 456.792 396.557 459.69 396.47H745.44C748.385 396.483 751.205 397.661 753.285 399.746C755.365 401.832 756.535 404.655 756.54 407.6Z"
            fill="#5A5773" />
        <path opacity="0.2"
            d="M756.54 511.63C756.54 514.577 755.372 517.403 753.291 519.489C751.21 521.576 748.387 522.752 745.44 522.76H459.69C458.198 522.805 456.713 522.55 455.322 522.01C453.93 521.47 452.662 520.656 451.591 519.616C450.52 518.577 449.668 517.333 449.087 515.959C448.506 514.584 448.206 513.107 448.206 511.615C448.206 510.123 448.506 508.645 449.087 507.271C449.668 505.897 450.52 504.653 451.591 503.614C452.662 502.574 453.93 501.76 455.322 501.221C456.713 500.681 458.198 500.425 459.69 500.47H745.44C748.391 500.481 751.217 501.662 753.298 503.754C755.379 505.846 756.545 508.679 756.54 511.63V511.63Z"
            fill="#5A5773" />
        <path
            d="M699.19 293.29V315.58H459.69C458.198 315.625 456.713 315.37 455.322 314.83C453.93 314.29 452.662 313.476 451.591 312.436C450.52 311.397 449.668 310.153 449.087 308.779C448.506 307.405 448.206 305.927 448.206 304.435C448.206 302.943 448.506 301.466 449.087 300.091C449.668 298.717 450.52 297.473 451.591 296.434C452.662 295.394 453.93 294.581 455.322 294.041C456.713 293.501 458.198 293.245 459.69 293.29H699.19Z"
            fill="#6C63FF" />
        <path
            d="M741.69 396.45V418.76H459.69C456.792 418.673 454.042 417.461 452.022 415.38C450.003 413.3 448.874 410.514 448.874 407.615C448.874 404.716 450.003 401.93 452.022 399.85C454.042 397.769 456.792 396.557 459.69 396.47L741.69 396.45Z"
            fill="#6C63FF" />
        <path
            d="M637.19 500.49V522.76H459.69C458.198 522.805 456.713 522.55 455.322 522.01C453.93 521.47 452.662 520.656 451.591 519.616C450.52 518.577 449.668 517.333 449.087 515.959C448.506 514.584 448.206 513.107 448.206 511.615C448.206 510.123 448.506 508.645 449.087 507.271C449.668 505.897 450.52 504.653 451.591 503.614C452.662 502.574 453.93 501.76 455.322 501.221C456.713 500.681 458.198 500.425 459.69 500.47L637.19 500.49Z"
            fill="#6C63FF" />
        <path opacity="0.1" d="M922.88 716.41C922.88 716.41 938.88 720.19 939.88 722.75L922.88 716.41Z" fill="black" />
        <path opacity="0.1"
            d="M860.96 728.01C860.96 728.01 852.6 730.44 860.69 735.29C868.78 740.14 860.96 728.01 860.96 728.01Z"
            fill="black" />
        <path opacity="0.1"
            d="M899.95 613.76L899.8 615.1L887.26 648.03C887.26 648.03 885.26 658.03 883.49 663.67C882.382 667.522 881.501 671.435 880.85 675.39L891.98 606.39L899.95 613.76Z"
            fill="black" />
        <path d="M919.53 555.63L914.31 555.72H914.14L911.08 542.12L915.62 541.88L919.53 555.63Z" fill="#3F3D56" />
        <path opacity="0.1" d="M989.51 412.49C989.51 412.49 981.42 413.3 981.15 420.32L989.51 412.49Z" fill="black" />
        <path opacity="0.1" d="M914.51 523.11C915.32 522.3 933.94 494.78 938.25 497.21L914.51 523.11Z" fill="black" />
        <path opacity="0.1"
            d="M983.17 539.16L979.82 541.93C976.82 537 964.7 527.15 964.7 527.15L965.22 526.64L966.99 526.21L983.17 539.16Z"
            fill="black" />
        <g style="mix-blend-mode:multiply">
            <path
                d="M411.128 242.378C410.414 242.378 409.574 242.336 408.608 242.252C407.684 242.21 406.718 242.126 405.71 242C404.744 241.916 403.82 241.811 402.938 241.685C402.056 241.517 401.3 241.349 400.67 241.181V199.16C401.426 198.95 402.266 198.782 403.19 198.656C404.114 198.488 405.059 198.362 406.025 198.278C407.033 198.152 407.999 198.068 408.923 198.026C409.889 197.984 410.771 197.963 411.569 197.963C413.921 197.963 416.147 198.152 418.247 198.53C420.389 198.908 422.258 199.538 423.854 200.42C425.45 201.302 426.71 202.478 427.634 203.948C428.6 205.376 429.083 207.161 429.083 209.303C429.083 211.655 428.474 213.671 427.256 215.351C426.08 216.989 424.484 218.123 422.468 218.753C423.728 219.047 424.883 219.467 425.933 220.013C426.983 220.559 427.907 221.273 428.705 222.155C429.503 222.995 430.112 224.045 430.532 225.305C430.994 226.523 431.225 227.993 431.225 229.715C431.225 233.831 429.587 236.981 426.311 239.165C423.035 241.307 417.974 242.378 411.128 242.378ZM404.954 221.084V238.283C405.584 238.367 406.529 238.472 407.789 238.598C409.049 238.682 410.33 238.724 411.632 238.724C413.564 238.724 415.433 238.598 417.239 238.346C419.087 238.094 420.704 237.632 422.09 236.96C423.476 236.288 424.589 235.364 425.429 234.188C426.269 233.012 426.689 231.5 426.689 229.652C426.689 227.972 426.395 226.586 425.807 225.494C425.219 224.36 424.379 223.478 423.287 222.848C422.195 222.176 420.851 221.714 419.255 221.462C417.701 221.21 415.958 221.084 414.026 221.084H404.954ZM404.954 217.43H413.27C414.824 217.43 416.294 217.325 417.68 217.115C419.066 216.863 420.263 216.443 421.271 215.855C422.321 215.225 423.14 214.406 423.728 213.398C424.316 212.348 424.61 211.025 424.61 209.429C424.61 208.001 424.295 206.804 423.665 205.838C423.035 204.83 422.132 204.011 420.956 203.381C419.822 202.751 418.457 202.31 416.861 202.058C415.265 201.764 413.501 201.617 411.569 201.617C410.015 201.617 408.692 201.659 407.6 201.743C406.55 201.827 405.668 201.932 404.954 202.058V217.43ZM438.148 225.683C438.148 222.827 438.547 220.349 439.345 218.249C440.185 216.107 441.256 214.322 442.558 212.894C443.902 211.466 445.414 210.416 447.094 209.744C448.816 209.03 450.58 208.673 452.386 208.673C456.376 208.673 459.547 209.975 461.899 212.579C464.293 215.183 465.49 219.194 465.49 224.612C465.49 224.948 465.469 225.284 465.427 225.62C465.427 225.956 465.406 226.271 465.364 226.565H442.495C442.621 230.555 443.608 233.621 445.456 235.763C447.304 237.905 450.244 238.976 454.276 238.976C456.502 238.976 458.266 238.766 459.568 238.346C460.87 237.926 461.815 237.569 462.403 237.275L463.159 240.803C462.571 241.139 461.458 241.538 459.82 242C458.224 242.462 456.334 242.693 454.15 242.693C451.294 242.693 448.858 242.273 446.842 241.433C444.826 240.593 443.167 239.417 441.865 237.905C440.563 236.393 439.618 234.608 439.03 232.55C438.442 230.45 438.148 228.161 438.148 225.683ZM461.269 223.1C461.185 219.698 460.387 217.052 458.875 215.162C457.363 213.272 455.221 212.327 452.449 212.327C450.979 212.327 449.656 212.621 448.48 213.209C447.346 213.797 446.338 214.595 445.456 215.603C444.616 216.569 443.944 217.703 443.44 219.005C442.978 220.307 442.705 221.672 442.621 223.1H461.269ZM502.432 242.693C499.912 242.693 497.686 242.294 495.754 241.496C493.822 240.698 492.205 239.564 490.903 238.094C489.643 236.582 488.677 234.797 488.005 232.739C487.333 230.639 486.997 228.329 486.997 225.809C486.997 223.247 487.333 220.916 488.005 218.816C488.719 216.716 489.727 214.91 491.029 213.398C492.331 211.886 493.906 210.731 495.754 209.933C497.602 209.093 499.681 208.673 501.991 208.673C503.755 208.673 505.393 208.82 506.905 209.114C508.459 209.408 509.656 209.786 510.496 210.248L509.425 213.776C508.585 213.356 507.64 213.02 506.59 212.768C505.54 212.516 504.133 212.39 502.369 212.39C498.757 212.39 496.006 213.566 494.116 215.918C492.268 218.228 491.344 221.525 491.344 225.809C491.344 227.741 491.554 229.526 491.974 231.164C492.394 232.76 493.066 234.146 493.99 235.322C494.956 236.456 496.174 237.359 497.644 238.031C499.156 238.661 500.983 238.976 503.125 238.976C504.889 238.976 506.359 238.787 507.535 238.409C508.753 237.989 509.635 237.632 510.181 237.338L511.063 240.866C510.307 241.286 509.11 241.685 507.472 242.063C505.876 242.483 504.196 242.693 502.432 242.693ZM529.016 208.799C530.36 208.799 531.62 208.904 532.796 209.114C534.014 209.324 534.854 209.534 535.316 209.744L534.497 213.272C534.161 213.104 533.468 212.936 532.418 212.768C531.41 212.558 530.066 212.453 528.386 212.453C526.622 212.453 525.194 212.579 524.102 212.831C523.052 213.083 522.359 213.293 522.023 213.461V242H517.928V210.941C518.978 210.479 520.427 210.017 522.275 209.555C524.123 209.051 526.37 208.799 529.016 208.799ZM539.538 225.683C539.538 222.827 539.937 220.349 540.735 218.249C541.575 216.107 542.646 214.322 543.948 212.894C545.292 211.466 546.804 210.416 548.484 209.744C550.206 209.03 551.97 208.673 553.776 208.673C557.766 208.673 560.937 209.975 563.289 212.579C565.683 215.183 566.88 219.194 566.88 224.612C566.88 224.948 566.859 225.284 566.817 225.62C566.817 225.956 566.796 226.271 566.754 226.565H543.885C544.011 230.555 544.998 233.621 546.846 235.763C548.694 237.905 551.634 238.976 555.666 238.976C557.892 238.976 559.656 238.766 560.958 238.346C562.26 237.926 563.205 237.569 563.793 237.275L564.549 240.803C563.961 241.139 562.848 241.538 561.21 242C559.614 242.462 557.724 242.693 555.54 242.693C552.684 242.693 550.248 242.273 548.232 241.433C546.216 240.593 544.557 239.417 543.255 237.905C541.953 236.393 541.008 234.608 540.42 232.55C539.832 230.45 539.538 228.161 539.538 225.683ZM562.659 223.1C562.575 219.698 561.777 217.052 560.265 215.162C558.753 213.272 556.611 212.327 553.839 212.327C552.369 212.327 551.046 212.621 549.87 213.209C548.736 213.797 547.728 214.595 546.846 215.603C546.006 216.569 545.334 217.703 544.83 219.005C544.368 220.307 544.095 221.672 544.011 223.1H562.659ZM586.275 239.039C587.871 239.039 589.257 238.997 590.433 238.913C591.651 238.787 592.68 238.64 593.52 238.472V227.006C593.058 226.796 592.323 226.586 591.315 226.376C590.307 226.124 588.921 225.998 587.157 225.998C586.149 225.998 585.099 226.082 584.007 226.25C582.915 226.376 581.907 226.691 580.983 227.195C580.059 227.657 579.303 228.308 578.715 229.148C578.127 229.988 577.833 231.101 577.833 232.487C577.833 233.705 578.022 234.734 578.4 235.574C578.82 236.414 579.387 237.086 580.101 237.59C580.857 238.094 581.739 238.472 582.747 238.724C583.797 238.934 584.973 239.039 586.275 239.039ZM585.897 208.673C588.039 208.673 589.845 208.988 591.315 209.618C592.827 210.206 594.045 211.046 594.969 212.138C595.893 213.188 596.565 214.448 596.985 215.918C597.405 217.388 597.615 218.984 597.615 220.706V241.244C597.195 241.37 596.586 241.517 595.788 241.685C594.99 241.811 594.066 241.958 593.016 242.126C591.966 242.294 590.79 242.42 589.488 242.504C588.228 242.63 586.926 242.693 585.582 242.693C583.86 242.693 582.264 242.504 580.794 242.126C579.366 241.748 578.106 241.16 577.014 240.362C575.964 239.522 575.124 238.472 574.494 237.212C573.906 235.91 573.612 234.335 573.612 232.487C573.612 230.723 573.948 229.211 574.62 227.951C575.292 226.691 576.237 225.662 577.455 224.864C578.673 224.024 580.122 223.415 581.802 223.037C583.482 222.659 585.309 222.47 587.283 222.47C587.871 222.47 588.48 222.512 589.11 222.596C589.782 222.638 590.412 222.722 591 222.848C591.63 222.932 592.155 223.037 592.575 223.163C593.037 223.247 593.352 223.331 593.52 223.415V221.399C593.52 220.265 593.436 219.173 593.268 218.123C593.1 217.031 592.722 216.065 592.134 215.225C591.588 214.343 590.79 213.65 589.74 213.146C588.732 212.6 587.388 212.327 585.708 212.327C583.314 212.327 581.529 212.495 580.353 212.831C579.177 213.167 578.316 213.44 577.77 213.65L577.203 210.059C577.917 209.723 579.009 209.408 580.479 209.114C581.991 208.82 583.797 208.673 585.897 208.673ZM611.903 209.429H624.881V212.894H611.903V230.219C611.903 232.067 612.05 233.579 612.344 234.755C612.68 235.889 613.142 236.771 613.73 237.401C614.318 238.031 615.032 238.451 615.872 238.661C616.712 238.871 617.636 238.976 618.644 238.976C620.366 238.976 621.752 238.787 622.802 238.409C623.852 237.989 624.671 237.611 625.259 237.275L626.267 240.677C625.679 241.055 624.65 241.496 623.18 242C621.71 242.462 620.114 242.693 618.392 242.693C616.376 242.693 614.675 242.441 613.289 241.937C611.945 241.391 610.853 240.593 610.013 239.543C609.215 238.451 608.648 237.107 608.312 235.511C607.976 233.915 607.808 232.025 607.808 229.841V199.853L611.903 199.097V209.429ZM642.251 237.59C643.133 235.784 644.036 233.726 644.96 231.416C645.884 229.064 646.766 226.649 647.606 224.171C648.488 221.651 649.286 219.131 650 216.611C650.756 214.049 651.386 211.655 651.89 209.429H655.985C655.229 212.411 654.389 215.351 653.465 218.249C652.541 221.147 651.554 223.982 650.504 226.754C649.496 229.526 648.425 232.193 647.291 234.755C646.199 237.317 645.128 239.732 644.078 242H640.172C639.08 239.732 637.988 237.317 636.896 234.755C635.804 232.193 634.733 229.526 633.683 226.754C632.675 223.982 631.709 221.147 630.785 218.249C629.861 215.351 629.021 212.411 628.265 209.429H632.612C633.116 211.655 633.725 214.049 634.439 216.611C635.195 219.131 635.993 221.651 636.833 224.171C637.715 226.649 638.618 229.064 639.542 231.416C640.466 233.726 641.369 235.784 642.251 237.59ZM666.787 242H662.692V209.429H666.787V242ZM667.732 199.601C667.732 200.567 667.438 201.344 666.85 201.932C666.262 202.478 665.548 202.751 664.708 202.751C663.868 202.751 663.154 202.478 662.566 201.932C661.978 201.344 661.684 200.567 661.684 199.601C661.684 198.635 661.978 197.879 662.566 197.333C663.154 196.745 663.868 196.451 664.708 196.451C665.548 196.451 666.262 196.745 666.85 197.333C667.438 197.879 667.732 198.635 667.732 199.601ZM675.69 225.683C675.69 222.827 676.089 220.349 676.887 218.249C677.727 216.107 678.798 214.322 680.1 212.894C681.444 211.466 682.956 210.416 684.636 209.744C686.358 209.03 688.122 208.673 689.928 208.673C693.918 208.673 697.089 209.975 699.441 212.579C701.835 215.183 703.032 219.194 703.032 224.612C703.032 224.948 703.011 225.284 702.969 225.62C702.969 225.956 702.948 226.271 702.906 226.565H680.037C680.163 230.555 681.15 233.621 682.998 235.763C684.846 237.905 687.786 238.976 691.818 238.976C694.044 238.976 695.808 238.766 697.11 238.346C698.412 237.926 699.357 237.569 699.945 237.275L700.701 240.803C700.113 241.139 699 241.538 697.362 242C695.766 242.462 693.876 242.693 691.692 242.693C688.836 242.693 686.4 242.273 684.384 241.433C682.368 240.593 680.709 239.417 679.407 237.905C678.105 236.393 677.16 234.608 676.572 232.55C675.984 230.45 675.69 228.161 675.69 225.683ZM698.811 223.1C698.727 219.698 697.929 217.052 696.417 215.162C694.905 213.272 692.763 212.327 689.991 212.327C688.521 212.327 687.198 212.621 686.022 213.209C684.888 213.797 683.88 214.595 682.998 215.603C682.158 216.569 681.486 217.703 680.982 219.005C680.52 220.307 680.247 221.672 680.163 223.1H698.811Z"
                fill="black" />
        </g>
    </g>
    <defs>
        <clipPath id="clip0">
            <rect width="1150.44" height="866.47" fill="white" />
        </clipPath>
    </defs>
</svg>