<svg width="1031" height="730" viewBox="0 0 1031 730" fill="none" xmlns="http://www.w3.org/2000/svg">
    <g clip-path="url(#clip0)">
        <path
            d="M82.83 592.56C82.83 596.42 82.4 599.56 81.83 599.56C81.26 599.56 80.83 596.43 80.83 592.56C80.83 588.69 81.3699 590.56 81.8999 590.56C82.4299 590.56 82.83 588.7 82.83 592.56Z"
            fill="#FFD037" />
        <path
            d="M88.18 597.16C84.79 599.01 81.84 600.16 81.59 599.65C81.34 599.14 83.87 597.3 87.26 595.46C90.65 593.62 89.31 594.96 89.57 595.46C89.83 595.96 91.56 595.31 88.18 597.16Z"
            fill="#FFD037" />
        <path
            d="M7.41003 592.56C7.41003 596.42 7.84003 599.56 8.41003 599.56C8.98003 599.56 9.41003 596.43 9.41003 592.56C9.41003 588.69 8.87003 590.56 8.34003 590.56C7.81003 590.56 7.41003 588.7 7.41003 592.56Z"
            fill="#FFD037" />
        <path
            d="M2.05997 597.16C5.44997 599.01 8.39997 600.16 8.64997 599.65C8.89997 599.14 6.36997 597.3 2.97997 595.46C-0.410033 593.62 0.929969 594.96 0.669969 595.46C0.409969 595.96 -1.32003 595.31 2.05997 597.16Z"
            fill="#FFD037" />
        <path opacity="0.1"
            d="M440.999 221.648L436.097 224.397V210.862L439.499 209.346C439.724 213.471 440.225 217.58 440.999 221.648Z"
            fill="black" />
        <path d="M377 164H663V430H377V164Z" fill="#F7DF1E" />
        <path
            d="M393.301 357.614L415.188 345.292C419.416 352.257 423.252 358.15 432.468 358.15C441.303 358.15 446.867 354.936 446.867 342.442V257.441H473.742V342.786C473.742 368.673 457.441 380.459 433.62 380.459C412.124 380.459 399.648 370.098 393.312 357.604L393.301 357.614ZM488.338 354.926L510.214 343.139C515.974 351.893 523.461 358.302 536.709 358.302C547.848 358.302 554.944 353.126 554.944 345.98C554.944 337.408 547.652 334.375 535.383 329.372L528.667 326.693C509.279 319.021 496.412 309.378 496.412 289.02C496.412 270.269 511.768 255.986 535.763 255.986C552.847 255.986 565.106 261.525 573.963 275.98L553.043 288.484C548.435 280.801 543.447 277.769 535.763 277.769C527.895 277.769 522.896 282.409 522.896 288.484C522.896 295.984 527.884 299.017 539.404 303.646L546.12 306.325C568.942 315.422 581.831 324.712 581.831 345.606C581.831 368.107 562.823 380.429 537.274 380.429C512.279 380.429 496.195 369.31 488.37 354.895"
            fill="black" />
        <path
            d="M172.388 334.186L165.466 334.672L161.816 334.931V325.588L166.607 324.67L169.574 324.098C169.574 324.098 178.749 295.336 187.557 300.564C196.366 305.791 172.388 334.186 172.388 334.186Z"
            fill="#714B4F" />
        <path opacity="0.1"
            d="M165.466 334.672L161.816 334.931V325.588L166.607 324.67C164.936 327.014 164.997 331.161 165.466 334.672Z"
            fill="black" />
        <path
            d="M96.2336 341.476C96.9149 341.476 97.4672 340.639 97.4672 339.607C97.4672 338.575 96.9149 337.739 96.2336 337.739C95.5523 337.739 95 338.575 95 339.607C95 340.639 95.5523 341.476 96.2336 341.476Z"
            fill="#BA7855" />
        <path
            d="M99.7508 354.544C100.432 354.544 100.984 353.708 100.984 352.676C100.984 351.644 100.432 350.807 99.7508 350.807C99.0695 350.807 98.5172 351.644 98.5172 352.676C98.5172 353.708 99.0695 354.544 99.7508 354.544Z"
            fill="#BA7855" />
        <path opacity="0.1"
            d="M109.548 367.98L103.635 369.298L106.805 359.956L109.018 359.372C109.508 362.21 109.686 365.099 109.548 367.98Z"
            fill="black" />
        <path d="M283 182.114L267.463 366.479L197.63 387L127.99 366.479L112.474 182.114H283Z" fill="#E44D26" />
        <path d="M197.732 371.318L254.159 354.75L267.412 197.192H197.732V371.318Z" fill="#F16529" />
        <path
            d="M167.535 242.424H197.732V219.808H144.21L144.719 225.878L149.97 288.197H197.742V265.581H169.492L167.535 242.424ZM172.388 299.505H150.979L153.966 335.017L197.64 347.913H197.742V324.314H197.65L173.876 317.51L172.388 299.505Z"
            fill="#EBEBEB" />
        <path
            d="M128.347 132H139.194V143.351H149.113V132H159.961V166.389H149.113V154.875H139.194V166.389H128.347V132ZM174.223 143.405H164.67V132H194.622V143.405H185.07V166.389H174.233V143.405H174.223ZM199.383 132H210.699L217.662 144.086L224.615 132H235.931V166.389H225.125V149.346L217.662 161.572H217.479L210.006 149.346V166.389H199.383V132ZM241.324 132H252.171V155.016H267.463V166.378H241.355V132H241.324Z"
            fill="black" />
        <path
            d="M197.66 288.197H223.942L221.465 317.531L197.66 324.335V347.913L241.426 335.06L241.742 331.237L246.758 271.694L247.278 265.624H197.66V288.24V288.197ZM197.66 242.37V242.424H249.225L249.653 237.337L250.673 225.867L251.182 219.797H197.66V242.36V242.37Z"
            fill="white" />
        <path d="M821.394 295L750.742 275.663L735 101.383H908L892.241 275.638L821.394 295Z" fill="#264DE4" />
        <path d="M878.748 264.549L892.215 115.641H821.513V280.178L878.748 264.549Z" fill="#2965F1" />
        <path
            d="M771.135 180.251L773.077 201.622H821.547V180.251H771.135ZM767.234 136.987L769.201 158.358H821.538V136.987H767.191H767.234ZM821.538 235.763H821.445L797.321 229.332L795.779 212.282H773.997L777.03 245.843L821.393 258.025H821.496L821.538 235.763Z"
            fill="#EBEBEB" />
        <path
            d="M775.718 54H801.946V64.8284H786.681V75.6569H801.946V86.4853H775.718V54ZM807.236 54H833.464V63.416H818.165V65.2992H833.43V86.9561H807.193V77.0693H822.458V75.1861H807.193V54H807.236ZM838.754 54H864.982V63.416H849.64V65.2992H864.905V86.9561H838.669V77.0693H853.934V75.1861H838.669V54H838.754Z"
            fill="black" />
        <path
            d="M871.771 180.251L875.681 136.987H821.393V158.358H851.915L849.947 180.217H821.393V201.588H848.065L845.509 229.332L821.393 235.78V258.017L865.791 245.868L866.115 242.253L871.226 185.976L871.754 180.234L871.771 180.251Z"
            fill="white" />
        <path opacity="0.3"
            d="M332.92 672.4C332.888 674.344 332.664 676.28 332.25 678.18C332.25 678.18 288.01 681.38 274.15 680.31C267.48 679.8 264.65 677.31 264.15 674.93C263.54 677.67 265.96 681.28 274.15 681.93C288.01 683 332.25 679.8 332.25 679.8C332.771 677.369 332.996 674.885 332.92 672.4Z"
            fill="white" />
        <path opacity="0.3"
            d="M351.57 678.79C351.538 680.734 351.314 682.67 350.9 684.57C350.9 684.57 306.66 687.77 292.8 686.7C286.13 686.19 283.3 683.7 282.8 681.32C282.19 684.06 284.61 687.67 292.8 688.32C306.66 689.39 350.9 686.19 350.9 686.19C351.421 683.759 351.646 681.275 351.57 678.79Z"
            fill="white" />
        <path opacity="0.1"
            d="M60.963 324.787C94.5747 369.418 81.5188 434.621 60.1602 486.83C53.009 504.314 44.9177 522.813 47.9388 541.554C51.6253 564.476 71.1775 581.265 91.7966 590.09C129.296 606.283 174.189 602.422 208.635 580.041C238.412 560.693 259.739 529.233 290.023 510.767C340.726 479.881 405.224 491.54 460.258 512.819C499.193 527.876 541.762 547.467 580.455 531.726C607.676 520.695 626.499 493.702 636.756 465.132C641.71 451.333 645.301 436.452 654.713 425.421C660.333 418.924 667.663 414.302 675.184 410.419C743.844 374.889 830.461 393.873 897.093 354.515C942.103 327.908 970.919 277.707 983.71 225.366C996.502 173.024 994.981 118.135 991.738 64.2378C989.436 25.9276 985.305 -14.9638 961.866 -44.5375C937.074 -75.81 894.516 -87.4475 856.056 -81.5019C817.596 -75.5563 782.716 -54.2667 752.083 -29.3149C713.75 1.86931 678.205 40.709 631.136 53.3503C599.088 61.9544 565.371 57.2442 532.308 55.6227C477.042 52.8981 421.766 58.9319 366.806 65.5505C314.191 71.9042 261.175 78.8978 211.075 96.7678C175.604 109.42 147.168 132.375 113.673 148.414C91.8389 158.872 68.0297 161.762 47.3684 175.076C21.9008 191.479 -1.43301 220.016 5.11609 253.395C11.2638 285.175 43.1114 301.103 60.963 324.787Z"
            fill="#6C63FF" />
    </g>
    <defs>
        <clipPath id="clip0">
            <rect width="1030.01" height="729.86" fill="white" />
        </clipPath>
    </defs>
</svg>